{
    "asset" : {
        "generator" : "Khronos glTF Blender I/O v1.6.16",
        "version" : "2.0"
    },
    "scene" : 0,
    "scenes" : [
        {
            "name" : "Scene",
            "nodes" : [
                0,
                1,
                2,
                3,
                4
            ]
        }
    ],
    "nodes" : [
        {
            "mesh" : 0,
            "name" : "Zeichenfl\u00e4che 1",
            "rotation" : [
                0.5,
                0.5,
                -0.5,
                0.4999999701976776
            ],
            "translation" : [
                0.15962529182434082,
                0.2709123492240906,
                2.445902109146118
            ]
        },
        {
            "mesh" : 1,
            "name" : "Zeichenfl\u00e4che 2",
            "rotation" : [
                0.5,
                0.5,
                -0.5,
                0.4999999701976776
            ],
            "translation" : [
                0.15962529182434082,
                0.17033013701438904,
                1.5042779445648193
            ]
        },
        {
            "mesh" : 2,
            "name" : "Zeichenfl\u00e4che 3",
            "rotation" : [
                0.5,
                0.5,
                -0.5,
                0.4999999701976776
            ],
            "translation" : [
                0.15962529182434082,
                0.04297579452395439,
                0.5679806470870972
            ]
        },
        {
            "mesh" : 3,
            "name" : "Zeichenfl\u00e4che 4",
            "rotation" : [
                0.5,
                0.5,
                -0.5,
                0.4999999701976776
            ],
            "translation" : [
                0.15962529182434082,
                -0.08211033791303635,
                -0.39588701725006104
            ]
        },
        {
            "mesh" : 4,
            "name" : "Zeichenfl\u00e4che 5",
            "rotation" : [
                0.5,
                0.5,
                -0.5,
                0.4999999701976776
            ],
            "translation" : [
                0.15962529182434082,
                -0.2044135481119156,
                -1.3356869220733643
            ]
        }
    ],
    "materials" : [
        {
            "alphaMode" : "BLEND",
            "doubleSided" : true,
            "name" : "Zeichenfl\u00e4che 1",
            "pbrMetallicRoughness" : {
                "baseColorTexture" : {
                    "index" : 0
                },
                "metallicFactor" : 0,
                "roughnessFactor" : 0.5
            }
        },
        {
            "alphaMode" : "BLEND",
            "doubleSided" : true,
            "name" : "Zeichenfl\u00e4che 2",
            "pbrMetallicRoughness" : {
                "baseColorTexture" : {
                    "index" : 1
                },
                "metallicFactor" : 0,
                "roughnessFactor" : 0.5
            }
        },
        {
            "alphaMode" : "BLEND",
            "doubleSided" : true,
            "name" : "Zeichenfl\u00e4che 3",
            "pbrMetallicRoughness" : {
                "baseColorTexture" : {
                    "index" : 2
                },
                "metallicFactor" : 0,
                "roughnessFactor" : 0.5
            }
        },
        {
            "alphaMode" : "BLEND",
            "doubleSided" : true,
            "name" : "Zeichenfl\u00e4che 4",
            "pbrMetallicRoughness" : {
                "baseColorTexture" : {
                    "index" : 3
                },
                "metallicFactor" : 0,
                "roughnessFactor" : 0.5
            }
        },
        {
            "alphaMode" : "BLEND",
            "doubleSided" : true,
            "name" : "Zeichenfl\u00e4che 5",
            "pbrMetallicRoughness" : {
                "baseColorTexture" : {
                    "index" : 4
                },
                "metallicFactor" : 0,
                "roughnessFactor" : 0.5
            }
        }
    ],
    "meshes" : [
        {
            "name" : "Zeichenfl\u00e4che 1",
            "primitives" : [
                {
                    "attributes" : {
                        "POSITION" : 0,
                        "NORMAL" : 1,
                        "TEXCOORD_0" : 2
                    },
                    "indices" : 3,
                    "material" : 0
                }
            ]
        },
        {
            "name" : "Zeichenfl\u00e4che 2",
            "primitives" : [
                {
                    "attributes" : {
                        "POSITION" : 4,
                        "NORMAL" : 5,
                        "TEXCOORD_0" : 6
                    },
                    "indices" : 3,
                    "material" : 1
                }
            ]
        },
        {
            "name" : "Zeichenfl\u00e4che 3",
            "primitives" : [
                {
                    "attributes" : {
                        "POSITION" : 7,
                        "NORMAL" : 8,
                        "TEXCOORD_0" : 9
                    },
                    "indices" : 3,
                    "material" : 2
                }
            ]
        },
        {
            "name" : "Zeichenfl\u00e4che 4",
            "primitives" : [
                {
                    "attributes" : {
                        "POSITION" : 10,
                        "NORMAL" : 11,
                        "TEXCOORD_0" : 12
                    },
                    "indices" : 3,
                    "material" : 3
                }
            ]
        },
        {
            "name" : "Zeichenfl\u00e4che 5",
            "primitives" : [
                {
                    "attributes" : {
                        "POSITION" : 13,
                        "NORMAL" : 14,
                        "TEXCOORD_0" : 15
                    },
                    "indices" : 3,
                    "material" : 4
                }
            ]
        }
    ],
    "textures" : [
        {
            "sampler" : 0,
            "source" : 0
        },
        {
            "sampler" : 0,
            "source" : 1
        },
        {
            "sampler" : 0,
            "source" : 2
        },
        {
            "sampler" : 0,
            "source" : 3
        },
        {
            "sampler" : 0,
            "source" : 4
        }
    ],
    "images" : [
        {
            "bufferView" : 4,
            "mimeType" : "image/png",
            "name" : "Zeichenfl\u00e4che 1"
        },
        {
            "bufferView" : 8,
            "mimeType" : "image/png",
            "name" : "Zeichenfl\u00e4che 2"
        },
        {
            "bufferView" : 12,
            "mimeType" : "image/png",
            "name" : "Zeichenfl\u00e4che 3"
        },
        {
            "bufferView" : 16,
            "mimeType" : "image/png",
            "name" : "Zeichenfl\u00e4che 4"
        },
        {
            "bufferView" : 20,
            "mimeType" : "image/png",
            "name" : "Zeichenfl\u00e4che 5"
        }
    ],
    "accessors" : [
        {
            "bufferView" : 0,
            "componentType" : 5126,
            "count" : 4,
            "max" : [
                1.805666446685791,
                6.903759697252099e-08,
                0.113913893699646
            ],
            "min" : [
                1.5788040161132812,
                6.903758986709363e-08,
                -0.11391374468803406
            ],
            "type" : "VEC3"
        },
        {
            "bufferView" : 1,
            "componentType" : 5126,
            "count" : 4,
            "type" : "VEC3"
        },
        {
            "bufferView" : 2,
            "componentType" : 5126,
            "count" : 4,
            "type" : "VEC2"
        },
        {
            "bufferView" : 3,
            "componentType" : 5123,
            "count" : 6,
            "type" : "SCALAR"
        },
        {
            "bufferView" : 5,
            "componentType" : 5126,
            "count" : 4,
            "max" : [
                0.9595487713813782,
                3.4518798486260494e-08,
                0.11391383409500122
            ],
            "min" : [
                0.7326865792274475,
                3.4518794933546815e-08,
                -0.11391377449035645
            ],
            "type" : "VEC3"
        },
        {
            "bufferView" : 6,
            "componentType" : 5126,
            "count" : 4,
            "type" : "VEC3"
        },
        {
            "bufferView" : 7,
            "componentType" : 5126,
            "count" : 4,
            "type" : "VEC2"
        },
        {
            "bufferView" : 9,
            "componentType" : 5126,
            "count" : 4,
            "max" : [
                0.11343115568161011,
                2.1673120695157448e-16,
                0.11391380429267883
            ],
            "min" : [
                -0.11343109607696533,
                -2.1673118048179488e-16,
                -0.11391380429267883
            ],
            "type" : "VEC3"
        },
        {
            "bufferView" : 10,
            "componentType" : 5126,
            "count" : 4,
            "type" : "VEC3"
        },
        {
            "bufferView" : 11,
            "componentType" : 5126,
            "count" : 4,
            "type" : "VEC2"
        },
        {
            "bufferView" : 13,
            "componentType" : 5126,
            "count" : 4,
            "max" : [
                -0.7326865792274475,
                -3.4518794933546815e-08,
                0.11391377449035645
            ],
            "min" : [
                -0.9595487713813782,
                -3.4518798486260494e-08,
                -0.11391383409500122
            ],
            "type" : "VEC3"
        },
        {
            "bufferView" : 14,
            "componentType" : 5126,
            "count" : 4,
            "type" : "VEC3"
        },
        {
            "bufferView" : 15,
            "componentType" : 5126,
            "count" : 4,
            "type" : "VEC2"
        },
        {
            "bufferView" : 17,
            "componentType" : 5126,
            "count" : 4,
            "max" : [
                -1.5788040161132812,
                -6.903758986709363e-08,
                0.11391374468803406
            ],
            "min" : [
                -1.805666446685791,
                -6.903759697252099e-08,
                -0.113913893699646
            ],
            "type" : "VEC3"
        },
        {
            "bufferView" : 18,
            "componentType" : 5126,
            "count" : 4,
            "type" : "VEC3"
        },
        {
            "bufferView" : 19,
            "componentType" : 5126,
            "count" : 4,
            "type" : "VEC2"
        }
    ],
    "bufferViews" : [
        {
            "buffer" : 0,
            "byteLength" : 48,
            "byteOffset" : 0
        },
        {
            "buffer" : 0,
            "byteLength" : 48,
            "byteOffset" : 48
        },
        {
            "buffer" : 0,
            "byteLength" : 32,
            "byteOffset" : 96
        },
        {
            "buffer" : 0,
            "byteLength" : 12,
            "byteOffset" : 128
        },
        {
            "buffer" : 0,
            "byteLength" : 7936,
            "byteOffset" : 140
        },
        {
            "buffer" : 0,
            "byteLength" : 48,
            "byteOffset" : 8076
        },
        {
            "buffer" : 0,
            "byteLength" : 48,
            "byteOffset" : 8124
        },
        {
            "buffer" : 0,
            "byteLength" : 32,
            "byteOffset" : 8172
        },
        {
            "buffer" : 0,
            "byteLength" : 6995,
            "byteOffset" : 8204
        },
        {
            "buffer" : 0,
            "byteLength" : 48,
            "byteOffset" : 15200
        },
        {
            "buffer" : 0,
            "byteLength" : 48,
            "byteOffset" : 15248
        },
        {
            "buffer" : 0,
            "byteLength" : 32,
            "byteOffset" : 15296
        },
        {
            "buffer" : 0,
            "byteLength" : 7882,
            "byteOffset" : 15328
        },
        {
            "buffer" : 0,
            "byteLength" : 48,
            "byteOffset" : 23212
        },
        {
            "buffer" : 0,
            "byteLength" : 48,
            "byteOffset" : 23260
        },
        {
            "buffer" : 0,
            "byteLength" : 32,
            "byteOffset" : 23308
        },
        {
            "buffer" : 0,
            "byteLength" : 9881,
            "byteOffset" : 23340
        },
        {
            "buffer" : 0,
            "byteLength" : 48,
            "byteOffset" : 33224
        },
        {
            "buffer" : 0,
            "byteLength" : 48,
            "byteOffset" : 33272
        },
        {
            "buffer" : 0,
            "byteLength" : 32,
            "byteOffset" : 33320
        },
        {
            "buffer" : 0,
            "byteLength" : 7725,
            "byteOffset" : 33352
        }
    ],
    "samplers" : [
        {
            "magFilter" : 9729,
            "minFilter" : 9987,
            "wrapS" : 33071,
            "wrapT" : 33071
        }
    ],
    "buffers" : [
        {
            "byteLength" : 41080,
            "uri" : "data:application/octet-stream;base64,"
        }
    ]
}
